<?xml version="1.0" encoding="utf-8"?>
<?xml-stylesheet type="text/css" href="/assets/css/styles.css" ?>
<!-- Generator: Adobe Illustrator 19.1.0, SVG Export Plug-In . SVG Version: 6.00 Build 0) -->
<svg version="1.1" class="travel__map" id="travel__map--japan" xmlns="http://www.w3.org/2000/svg" xmlns:xlink="http://www.w3.org/1999/xlink" x="0px"
	 y="0px" viewBox="0 0 853.7 909.4" enable-background="new 0 0 853.7 909.4"
	 xml:space="preserve">
<g>
	<path d="M161,807.9c-1.2,1.6-1.7,2.5-0.5,1.8C161.7,809.1,162.2,806.3,161,807.9z"/>
	<path d="M158.2,816.4c-1.2,1.3-1.6,2.1-0.5,1.7C158.7,817.8,159.4,815.1,158.2,816.4z"/>
	<path d="M162.9,822.1c-1.6,2.2-2.1,1.7-1.1,3c0.9,1.3,1.3,0,1.9-1.1C164.2,823,164.6,819.9,162.9,822.1z"/>
	<path d="M223,765.1c0.5,1.2,1.2,1.2,3.2,1.3c2,0.1,2.2-2.4,2.5-3.7c0.3-1.3-1.7-0.8-2.3-4.4
		c-0.6-3.7-0.7-0.9-2.8-0.5c-2.1,0.3-1.2,1.9-1,3.2C222.8,762.3,222.5,763.9,223,765.1z"/>
	<path d="M234.5,702.2c-3.7,0-1.2,2.9,2.1,2.9C237.9,705.1,236.2,702.2,234.5,702.2z"/>
	<path d="M223.3,552.4c2,1.5,2.6-1.6,1.3-3.1C223.3,547.8,221.3,550.9,223.3,552.4z"/>
	<path d="M221.3,555.2c3.7,1.9,2.3-1.5-0.3-3.1C218.4,550.6,217.7,553.3,221.3,555.2z"/>
	<path d="M245.1,736.6c-2.8,2.1-5.6,2.8-8.6,3.9c-3,1.1-3,1.4-3.4,3.3c-0.4,1.8,1,0.9,0.5,1.6
		c-0.5,0.8,0.3,1.1,1,2.2c0.7,1.1,0.4,2.2-0.2,3.8c-0.6,1.6-0.2,1.3,0.8,1.7c1,0.4,2.4-0.5,1.2-0.9c-1.1-0.3-0.1-1.1,1.9-0.7
		c2,0.4,1.5-0.8,2.5-2.3c0.9-1.5,0.3-1.2,1.4-2.2c1.1-1,2.1-1.4,1.8-2.8c-0.3-1.4,0.6-1.9,1.9-2.3c1.2-0.3,1.6-0.5,2.9-1.9
		c1.2-1.4,1.4-1.8,2.8-2.4c1.3-0.5,1.3-0.3,2.5-1.5c1.1-1.2,0-1.5-0.5-2.6c-0.5-1.1-1.3-1.1-2.8,0.2
		C249.3,735.1,247.8,734.5,245.1,736.6z"/>
	<path d="M227.6,544.1c0,0-4.6,3.7-2.6,3.1c2-0.6,2.6,0.3,2.9,3.7c0.3,3.4,3.6-2.2,5.2-3.7c1.6-1.5,2.3-3.7,0.3-3.1
		c-2,0.6-2.6,1.6-2.6-2.5c0-4.1-2.6-4.1-2.3-0.6C228.8,543.8,227.6,544.1,227.6,544.1z"/>
	<path d="M230.5,534.8c2.3,0,2.3-2.2-0.3-2.5C227.6,532,228.2,534.8,230.5,534.8z"/>
	<path d="M253,685.4c2.9,0.4,4-3.5,1.1-3.5C251.2,682,250.1,685,253,685.4z"/>
	<path d="M216,556.1c-1.6,1.5-3.3-0.6-3.3,2.1c0,2.8-1.3,2.2,2.9,4.6c4.3,2.5,1-3.7,4.3-1.5c3.3,2.2,2.3-1.8-1-4.6
		C215.7,554,217.7,554.6,216,556.1z"/>
	<path d="M255.9,598.8c0.7-3.1-3.7-3.1-4.1-0.4C251.3,601.1,255.2,602,255.9,598.8z"/>
	<path d="M210.8,779.7c1.3,0.3,2-0.2,4.1-2.9c0.9-1.2,1.3-1.4,1.6-1.4c-0.3-0.5-1.9,0.2-3.2,1.1
		c-1.3,1-3.6,0.2-4,1.2C208.8,778.6,209.5,779.4,210.8,779.7z"/>
	<path d="M216.6,775.4C216.6,775.4,216.5,775.4,216.6,775.4C216.8,775.4,216.7,775.8,216.6,775.4z"/>
	<path d="M208,790.2c-2-0.1-4.7,0.8-2.8,1.5C207.2,792.5,210,790.3,208,790.2z"/>
	<path d="M82.7,876.5c-2.6,1.2-1.6,3.1,1.3,3.1C87,879.6,85.3,875.2,82.7,876.5z"/>
	<path d="M47.7,891.4c-2.3,0.6-5.6,1.9-3.3,4c2.3,2.2-4.2,3.3,3.4,2.1c3.3-0.5,4-0.2,3-2.7c-1-2.5,1.1-3.5,2.1-7.2
		C54,884,51,888,47.7,891.4z"/>
	<path d="M65.4,882.4c-2.3,0-2.3,4.6,1.3,4.3C70.3,886.4,67.7,882.4,65.4,882.4z"/>
	<path d="M165.8,825.2c0.4-1.7-0.5-4.4-1.2-1.6C163.8,826.4,165.4,827,165.8,825.2z"/>
	<path d="M187.1,791.2c-1.9,1.5,0.8,1.8,2.8,0C191.8,789.4,188.9,789.7,187.1,791.2z"/>
	<path d="M182.6,802.6c-1.7,0.1-3.8,1.5-1.2,1.5C184,804.1,184.4,802.5,182.6,802.6z"/>
	<path d="M186.7,795.3c-0.4,1.9,0.5,2.7,1.1,1.1C188.4,794.8,187.1,793.4,186.7,795.3z"/>
	<path d="M175.8,824.5c0.1,1.7-0.4,5.3,1.4,4.9c1.9-0.4,1.4-1.7,4.4-2.6c3-0.9,3-1.9,1.4-2.6c-1.5-0.7-2-3.5-0.5-4
		c1.4-0.5,1.2-1,3.1-0.2c1.9,0.8,1.5,1.4,2.9-0.8c1.4-2.2,2.4-4,0.5-2.6c-1.9,1.4-3.6,1.2-4.2,0.3c-0.6-0.9-0.1-1.9,2.1-2.2
		c2.2-0.2,2.7-1.2,4.1-2.5c1.4-1.3,2.3-0.7,3.7-2.3c1.4-1.6-0.5-1.6,0.9-2.1c1.5-0.4,0.5,0.7,3.2-1.8c2.7-2.5,4.4-3.9,3.2-5.7
		c-1.2-1.8-0.9-1.7-2.3-2.7c-1.3-1-0.8,0.3-0.9,1.1c-0.1,0.8-0.7,0.7-2,2.2s-1.7,0.3-2.7,2.4c-0.9,2.1-1,3.4-2,3
		c-0.9-0.3-0.4-1.8-1.6-2.3c-1.2-0.4-1.2-0.5-3.2-0.3c-2,0.2-3.3,0.6-3.2,1.9c0.1,1.3,1.3,1.6,2.5,2.3c1.1,0.7,3.3,0.8,1.2,2
		c-2.1,1.2-2,0.6-3.6,2.2c-1.6,1.5-2,2.3-4,2.8c-2.1,0.5-1.7,1.2-0.9,2.8c0.8,1.6,2-0.1-0.1,2.6C177.3,823,175.7,822.7,175.8,824.5z
		"/>
	<path d="M145.5,817.3c-1.9-0.6-3.5-1-4-0.2c-0.5,0.8-0.6,1,1.3,1.6c2,0.7,0.3,1,3.5,0.3c3.2-0.7,3.4-2.3,2.2-1.8
		C147.2,817.7,147.3,818,145.5,817.3z"/>
	<path d="M32,906.3c-3.3,0-2.6,3.1-0.3,3.1C33.9,909.4,35.3,906.3,32,906.3z"/>
	<path d="M1.8,894.9c2.3,0.6,3.3-3.5,0.3-3.5C-0.8,891.4-0.5,894.2,1.8,894.9z"/>
	<path d="M28,897.3c-2.9,1.2,3.3,3.4,7.2,2.7c3.9-0.6,0-4.9-2.3-7.4c-2.3-2.5-4.6-0.9-2.9,0.9
		C31.7,895.4,31,896.1,28,897.3z"/>
	<path d="M40.5,899c-3.3,0.3-3.3,2.8-0.3,3.1C43.1,902.4,43.8,898.7,40.5,899z"/>
	<path d="M298.4,654.9c0-2.4,2.1-0.5,2.5-2c0.6-2.3-1.2-6.2,1.7-7.7c3.2-1.6,1.9-11.9,1.2-11.5
		c-0.7,0.4-3.4,4.8-4.3,7.2c-0.6,1.8,1,4.2-0.5,5.5C296.6,648.5,293.4,654.9,298.4,654.9z"/>
	<path d="M259.5,589.5c-4.9,0-0.8,3.1,1.6,3.5C263.6,593.4,264.4,589.5,259.5,589.5z"/>
	<path d="M264.4,741.5c1-1.2,2.5-1.3,1.8-2.3c-0.6-1-0.7-1.2-2.3,0c-1.5,1.2-3.4,1.6-3.1,2.5
		C261.2,742.6,263.3,742.7,264.4,741.5z"/>
	<path d="M262.5,669.1c-1-1-3.5-1.2-1.6,1C262.7,672.4,263.5,670.1,262.5,669.1z"/>
	<path d="M272.3,648.9c-2-0.8-3.7,1.2-1.6,1.9C273.7,652,275.4,650,272.3,648.9z"/>
	<path d="M286.8,658.7c2.6-0.3,3.8-3.7,2.6-5.4c-0.5-0.8-1.1-1.4-3-2.3c-0.9-0.4-1.9-1.8-3.6-1.6
		c-1.2,0.1-2.1,2.2-3.9,2.7c0,2-0.9,4.9,0.9,6.3c1,0.7,2.2,1,3.5,1.2C287.7,660.2,284.2,658.9,286.8,658.7z"/>
	<path d="M258.7,675.2c1.8,1.6,3.5,0.2,1.9-0.8C259.2,673.4,256.9,673.6,258.7,675.2z"/>
	<path d="M91.3,882.7c3.9-0.7,4.3-1.6,1-4c-3.3-2.5-3.6-2.2-4.6,0.3C86.7,881.5,87.3,883.3,91.3,882.7z"/>
	<path d="M573.3,340c-0.7,1.1,0.5,1.3-1.6,2.3c-2,1-1.3,1.7-0.5,2.1c0.8,0.4,2.5,0.2,5.2-1c2.7-1.1,4.5-3.6,6.8-7.3
		c2.3-3.6,0.7-1.2,1-2.3c0.3-1.1-0.2-2-1.3-1.5c-1.1,0.5-1.4,0.4-2.9-0.3c-1.6-0.7,0.2-3.3,1.1-4.8c0.9-1.5,1-2,1.4-3.9
		c0.5-1.9-0.4-2.3-1.6-1.9c-1.1,0.4-1.6,2.3-2.7,3.3c-1.1,1-3.9,3.5-5.4,6.1c-1.5,2.6-1.1,3.3-1.1,4.7c0,1.4,0.1,2.2,1.1,1.4
		c0.9-0.8,1.8-1.2,2.6-0.2C576.2,337.7,573.9,338.9,573.3,340z"/>
	<path d="M680.8,19c2.5,0,6.6,1.2,6.6-2c0.6-1.2-3.3-5.1-4.2-4.6c-0.2,0.1-1.4,1.3-1.9,1.6
		C679.7,14.9,680.8,17.7,680.8,19z"/>
	<path d="M848.9,96.6c-1.6,1-4.4,2.5-5.8,3.9c-3.2,3.1-4-0.4-6.9-2.8c-4.8-3.1,2.4-0.8-2.4-4.3
		c-2.9-2,4.6-3.8,3.7-5.7c-0.9-2-4.6-0.7-4.1-1c-2.4-1.4-11.9-4.6-3.8-15.2c1.8-2.3,2.9-3.4,3.9-6.5c0.6-1.8,0.4-2.9,1.7-3.3
		c0.4-0.1,0.9-1.1,1.6-0.9c0-0.8,0.9-5.4-0.3-5.9c-0.8-0.3-3.2,1.9-3.6,2.3c-0.5,0.5-0.8,1-0.8,1.7c-0.2,2.2-1.5,1.7-3.7,2.8
		c-5.2,2.5-6.7,8.2-12.2,10.1c-4.2,1.5-12.8,0.1-14.9-0.8c-2-0.9-4.6-2-4.6-3.4c-0.7-1.6-4.2-2.9-3.4-1.2c0.4,1-1.3,2.4-2.6,1.9
		c-2.8-1.1,3.4-2.5,0.3-4c-10.8-2-10.9-1.8-6.6,0.6c0.7,0.4-7,0.1-7.8-0.8c-3-2.9,7.3-0.3-0.6-3c-1.8-0.6-3.1-1.8-4.8-2.3
		c-3.6-0.9-5.6-4.1-7.6-6.8c-1.7-2.3-5.8-2.8-8-5.3c-1.5-1.7-5.7-2.5-6.4-3.5c-0.7-1-1.8-2.5-3.1-3.8c-2.7-2.6-10.1-6.5-10.2-10
		c-0.1-2.6-4.2-3.9-4.2-6.8c-0.9-1.8-2-2.8-2.6-3.3c-1.9-0.6-3.1-1.9-4.3-3.3c-1.8-1.9-3-4.1-3.6-6.4c-2.3-0.5-4.3-1.3-5.8-2.8
		c-1-1-4.3-8.5-6.5-6.7c-1.4,1.1-2.5,4.8-4.2,5.8c-3.2,1.7-3.6-1.3-6-2.5c0,1.4,1.1,7.5-2.1,7.5c0.4,2.4-0.5,5.1,0.8,7.4
		c8.7,14.2,8,22.9,6.3,29c-0.5,1.7-1.5,4.9-4,6.9c-1.9-1.1,1.3,8.7-2,18.2c-1.1,3.1-3.6,3.1-6.2,4.1c-2.9,1.1-5.7,3.9-4.3,6.1
		c4.9,7.7-0.7,6.3,2.1,10.9c1.1,1.8,3.1,6.2,0.7,8c-1.5,0.8-2.9,1.9-4.3,2.8c-1.8,1.3-6,3.6-8.5,2.3c-0.9-0.5-1.2-1.6-1.5-2.4
		c-0.7-1.8-3-2-2.1,0.1c-2.9,0-6.6,0.5-9.3-0.7c-2.4-1.2-3.9-3.2-6-4.7c-1.2-0.9-4.1-3.2-4.1-0.4c-1.8,0.8-4.2-0.7-3.9,1.2
		c0.1,1.2,0.7,1.5-0.2,3.1c-1,1.6-0.6,2,1.7,4.4c1.9,2,2.3,1.8,3.3,3c1,1.3,2.6,2,1.9,3.6c-1,2.2-6.3,5.2-7,6.6
		c-1.1,2.3-4.1,5.9-4.2,1.7c-3.1,0-1.1,1-3.3,3.4c-3.8,0-1.7,2-4.8,2.5c-4.4,0.7-8.5,0.2-6.2,7.9c0.7,2.3-0.2,2.5-0.5,3.9
		c-0.3,1.5-2,3.3-2.2,4.9c-0.2,1.3,1,2.3,1.2,3.6c0.1,0.7,0.5,1.6,1.3,1.8c2.8,0.6,1.7,2.2,3.5,3.5c1,0.7,2.5,0.6,3.3,1.4
		c0.8,0.9,1.5,5.2,1.9,5.7c0.5,0.6,0,1.4,0.9,2c2.8,1.8,1.8,2.7,1,5.7c-0.7,2.7-1.8,3-4,7.4c-0.4,0.9-2.9,4.4-1.7,4.8
		c2.6,0.8-0.3,5.4,3.3,7c3.3,1.5,5.2,2.5,7.3-1.3c1.2-2.2,4.6-0.1,5.2-2.2c0.4-0.4,1-0.6,1.7-0.4v-3.7c0-0.9-1-4.1,1-4
		c3.1,0.1,3.4-1.1,5.6-1.1c-1.7-2.2,0.4-3.5,1.8-4.1c1.3-0.6,2-0.7,0.8,1.7c-1.3,2.5,9.7-0.9,9.7,2.6c3,0.7,3.2,1.1,5-1.3
		c0.9-1.1,3.4-1.1,4-2.4c0.5-1-0.4-2.4-1.1-2.8c-1.5-0.9-6.4-2.7-8.9-4.7c-1.5-1.2-1.3-1.2-2.4-1.9c-1.1-0.6-1.2-4.9-2.3-5.9
		c-1.1-1-0.4-2.7-3-2.9c-3.7-0.2-4.7,4.3-9-2.5c-1.7-0.9-5.4-1.5-6.7-2.9c-1.2-1.3,1.3-5.7,1.8-7c2-5.2,3.1-7.4,9.3-7.4
		c5.6,0,7.3,3,10.5,6.7c2,2.3,2.9,7,6.1,5c1.5-1,2.2-3.1,3.7-4.5c1.3-1.3,3.3-1.9,4.4-3c4.6-4.5,11.3-5.1,17.8-7.1
		c0,2.6,5,2.6,7,2.8c2,0.2,1.5,1.5,2.3,3.1c1.1,2.2,2.5,1.7,5,2.5c3.6,1.1,7.7,3.1,9.6,6.3c1.4,2.6,8.3,1.6,7.4,4.4
		c2.8,0.8,8.4,1.4,9.8,3.9c1.3,2.3,7.3,0.7,9.3,3c1.6,1.8,2.9,7.2,4.9,8.7c3,2.3,3.5-6.6,4.1-8.7c1.2-3.5-0.1-7.2,0.7-10.9
		c0.8-3.4,2.1-0.6,2.5-2.2c0.2-1-0.9-2.5,0.9-2.6c-0.7,0,3.8-6.7,4.5-7.3c3.8-3.8,7.3-7.3,11-10.8c3.8-3.7,13.2-12.3,20.1-7.8
		c3.1,2,7.3,2,11,1.9c8.1-0.2,1.8-1.9,2.6-4.3c3.5-0.1,2.4-2.2,4.4-1.5c2,0.7-2.5,3.4,1.3,4.1c3.8,0.7,6.2-2.4,7.1-2.8
		c5.5-2.9-2.9-2.1,1.1-3.9c4-1.7,1.9,1.2,6.1-0.8c7.7-2.8,8.8,0.5,10.3-2.4c1.3-2.6,1.6-4.9,4.8-5.4
		C858.2,98.6,850.5,95.6,848.9,96.6z M671.5,133.5c-0.4,0.7-2.3,0.8-3.1,0.7c-0.8-0.1-1.3-2.1-0.2-3c1.1-0.9,1.5-0.4,3.5,0
		C673.7,131.7,671.9,132.8,671.5,133.5z M688.8,126.3c-3.9,1.4-4.5-0.4-3-1.5c1.5-1.1,3.1-1.5,3.7-0.9
		C690,124.5,692.7,124.9,688.8,126.3z M800.1,87.2c-1.5,2.2-1.2,0.8-2.8,0.6c-1.7-0.1-0.4-0.9-0.1-2.4c0.3-1.5,1.6-1.7,4.5-1.7
		C804.6,83.7,801.6,85.1,800.1,87.2z M805.6,88.2c0.2-1.3,0.4-1.3,2.8-1.3C810.8,87,805.4,89.5,805.6,88.2z"/>
	<path d="M677.6,10.3c0-3.5,1.6-6.6-3.3-6.6C674.4,5.6,674,10.3,677.6,10.3z"/>
	<path d="M717.2,790.6c0,4,6,4.3,5-0.7C721.3,785,717.2,786.6,717.2,790.6z"/>
	<path d="M720.1,766.9c-2.8-4.6-6.6,0.7-4.4,2C717.9,770.2,722.9,771.5,720.1,766.9z"/>
	<path d="M612.8,184.7c1.7,1.1,3.9-0.7,2.1-1.3C612.9,182.8,611.1,183.6,612.8,184.7z"/>
	<path d="M619.5,154.4c0-2.9,2.2-3.2,1.9-6.1c-0.3-2.9-0.8-1.9-2.2,0.2c-1.3,2.2-1.1,1-3,1.9c-1.9,1-1.6,3.2-1.4,5.9
		C615.1,159.1,619.5,157.4,619.5,154.4z"/>
	<path d="M715.7,806c0.3,2.3,4.7,6.3,4.1,0.7C719.1,801.1,715.4,803.7,715.7,806z"/>
	<path d="M689.8,50.8c2.6-0.5,4.2-2.6-0.7-2.4C684.2,48.7,687.2,51.4,689.8,50.8z"/>
	<path d="M355.1,540.8c-2.5-1.1-0.7,1.5-3.3,1.5c-0.5,3,1.9,1.1,3.3,1.6V540.8z"/>
	<path d="M361.6,556.3c0.8-3.3-2.1-2.7-3.3-1.5C358.8,556.4,359.1,556.5,361.6,556.3z"/>
	<path d="M355.3,535.3c-1.1,0-3.8-1.2-4.7-0.1C353.6,539,355.3,540.3,355.3,535.3z"/>
	<path d="M412,441.7C412,441.8,412,441.7,412,441.7C411.5,441.9,411.7,441.8,412,441.7z"/>
	<path d="M691.2,901.7c0,2,3.4,1.3,2.5-0.7C692.8,899.1,691.2,899.8,691.2,901.7z"/>
	<path d="M713.8,267.3c-0.7-0.3-0.8-1.9-1-2.7c-0.2-0.9-1.1,0.6-1.1-0.5c-0.3-3.7,0.3-5.8,0.3-9.2
		c-1.5,0-1.2-2.8-1.1-4c0.3-2-1.7-3.5-3.3-4.3c-3.9-2,0.9-2.4,0.3-4c-0.5-0.4-1.6-1.6-2.3-1.5c0-1.9-0.1-2.1-0.1-4.1
		c-1-0.4-1.4-2-1.9-2.9c-0.5-1.1-0.1-2.1-1.4-2.9c-1.6-1-1.3-0.1-1.9-2c-0.2-0.9-1.2-1.3-2.1-1.8c-2-1.4-5.3-2-5.6-5.2
		c-0.3-3-1.9-5.6-2.2-8.4c-0.5-4.8-0.9-12.9-0.7-14.7c0.2-1.8,3.5-10.7,2.5-11.4c-0.5-0.4-3,2.4-5.2,2.8c-2.1,0.3-4.5-0.1-5.3-2
		c-0.8-2.1-3.9-2.4-6-3.5c-1.8-1-3.4-2.9-4.3-2.5c-0.6,0.2-0.4,3.6-2,4.2c-1,0.4-1.4,3.5-1.7,4.6c-0.9,3.2-2.8,6-1.6,8.9
		c0.6,1.6,1.5,0,3.5-1c2-1,4.9-0.4,6.2-0.7c1.3-0.4,3.6-1,4.6-2c2-1.9,2.6-1.3,3-0.9c0.4,0.4,0.9,1.9,1.2,2.9c0.2,0.6-1.4,4.3-1.2,7
		c0.2,3.6-2.3,4.7-3.1,5.8c-1,1.3-6.1-4.4-7.2-5c-0.9-0.5-3.6-0.8-3.6,2.8c-0.1,2-0.3,2.2-1.1,2.8c-0.8,0.6-1.7,1.9-3.2,1.3
		c-2.2-0.9-2.1-2.3-2.5-4.7c-0.5-2.9-0.6-4.1-0.7-6.6c-0.1-2.5-0.7-8.2-6-4.4c-3.2,2.2-3.7-3.8-5.6-2.8c-0.5,0.3-0.8,1.7-0.8,3.6
		c-0.8,0.6-2.6,1.4-1.3,3.4c2.4,3.6,0.4,9.9-0.7,12.3c-1.3,2.6-6.6,1.8-9.2,2.2c0,3.4-1,2.2-3.6,4.4c-0.4,0.4-2.9,1.9-2.9,2.5
		c-0.1,0.9,2.3,0.4,3.1,1.5c0.9,1.3-0.5,4.5,0.3,6.2c1.1,2.2,2.4,2,2.5,3.2c0.3,3.5-0.1,7.2-1.8,10.4c-1.4,2.7-2.7,5.3-4.5,6
		c-1.3,0.5-2.9-0.4-5.1-1.1c0.5,1.4-0.1,1.5,0.1,2.4c0,3.3,1.1,1.2,2.9,3.9c1.8-0.9,2.6-1.5,4.7-1.8c1.3-0.2,3.6,1.3,4.1,2.7
		c0.5,1.6,1.5,3.7,1.4,5.7c-0.1,2-0.8,8.6-0.8,9.9c-0.1-1.1,0.6,4.7-3.7,7.7c-1.8,1.2-1.3,2.9-1.6,4.8c-0.4,2.6-1.2,5.4-2.2,6.8
		c-1.8,2.3-0.7,6.6-3.7,10.2c-1.2,1.5-3.7,3.7-5.9,6.5c-2.2,2.8-3.2,7.6-3.9,8.5c-0.7,0.8-2,9-2,10.8c-1.7,5.3-7.2,7.7-7.2,8.3
		c-1.5,0-3.7,1-5,1.7c-1.1,0.6-1.3,0.3-2,1.2c-1.1,1.6-4.4,1.7-5.3,3c-2.5,3.2-2.5,2.1-4,6c-1.5,3.9-1.1,4.2-2.1,6.1
		c-1.1,2.1-2.6,1.6-3.6,3.7c-0.7,1.3-0.9,2.6-2,3.8c-0.8,1-1.8,2-3,2c0,0.7-2.6,1.7-3,2.3c-1,1.4-3.2,2.3-4.7,3.4
		c0,2.6-3.5,2-5.4,2.3c-2.3,0.4-3.8,0.5-5.2,2.5c-0.7,1-4.1,2.1-5.2,2.6c-4.8,2.5-8.6,3.2-13.5,3.8c-3.5,0.4-3.7,2.6-4,5.6
		c-0.2,1.8-2.5,3.2-4.1,3.4c-1.4,0.2-2.9-1.2-4.3-1c-2.7,0.4-5.7-0.9-6.3-3.1c-0.6-2.2,2.1-3.1,2-5.9c0-1,0.1-2.7,0-3.6
		c-0.1-0.9-0.2-4.9-1.1-3.6c-0.7,1.1-0.4,0.7-4.3,0.7c0.6-2.5-0.8-2,0.7-2.9c1.4-0.9,1.4,1.6,3.7,0.5c1.4-0.6,1.7-2.6,3.5-3.5
		c1.2-0.7,3.9-0.3,4.7-1.2c1.9-2.1-0.4-3.8,0.5-4.9c0.9-1.1,4.6,0.6,3.3-3.6c-0.4-1.3-1.7-1.3-3.3-0.8c-2.8,0-3.9,0.5-8,3.2
		c-2.4,1.7-4.8,1.5-6.3,2.1c0.3-0.9-4,2.2-4.8,2c-2.2,1.2,0.2,2.8-2.4,5.6c-1.8,1.9-1.4,4,0.9,4.2c0.8,0.1,0,2.4,0.5,3.3
		c1.5,2.8,2.2,4.9,1,8c-0.7,1.7-2.5,6.2-3.7,7.7c-0.7,0.9-3.2,3.3-6.7,8.4c-3.6,5-5.1,4.3-6.7,6.5c-3.3,4.8-5.3,1.6-6.4,5
		c-1.1,3.6-3.3,4.4-4.9,10.1c-1.7,5.7,3.3,6.5,4,9.9c0.3,1.3-1.4,1.9-1.3,3.2c-1.8,0,0.4-4-2.5-2.8c-2.6,1-0.5,2.9-1.3,4.3
		c-0.7,1.3-2,0.8-3.6,0.8c-1,0-0.8,1.8-2.3,2c-1.2,0.2-2.5-0.8-3.8-0.4c-1.7,0.5-3,2.6-4.2,3.1c-1.5,0.7-2.7-0.3-3.8-2.2
		c-1.3-2.3-3.3-0.9-4.2-0.4c-1.1,0.6-1.1,2.4-2.8,1.5c-0.8-0.4-1.2-2.6-1.7-2.5c0-1.5-5.7,6.1-5.7,4.7c0-1,6.8-7.5,7.7-8
		c1.6-0.8-2.4-5.2-4.5-3.5c-2.4,1.8-2.1-1.5-5.5,1.5c-1.8,1.6-3.7,2.7-6.1,2.7c-4.1,0-5.9-0.7-10-0.7c-0.7-0.2-1.7-0.1-3.1-0.2
		c-1.7,0-2.2,1.6-4.4,2c-2.7,0.6-2.3,1.7-5.5,2.2c-1.4,0.2-2.8,1.1-4.2,1.2c-2.2,0.2-2.5,0-4,0c-0.5,0.2-2.2,0.7-2.9,0.9
		c1.1-0.3-1.3,0.7-2.8,0.7c-2.9,0-4.3-0.4-7.2-0.6c-2.1-0.1-5.6-1.4-7.3,0c-1.9,1.4-2.7,3.5-5.9,2c-6.9-3,0.8-3.6-0.9-4.6
		c-1.2-0.8-5.7-1-7.4-0.9c-2.2,0.2-1,0.3-2.4,1.4c-1.6,1.2-6.3,1.5-8.2,2.7c-1.9,1.1-9.5,0.7-7.2,3.1c2.3,2.3,1.7,4.6-0.4,5.2
		c-2.5,0.8-5.1,3-6,3.7c-0.9,0.7-2.5,0.8-4.6,4.2c-0.9,1.4-2.4,1.5-3.6,2.5c-1.2,0.9-3.8,2-4.9,3.7c-1.7,2.7-3.4,3.4-5.8,5.5
		c-1.8,1.6-4.3,4.3-6.6,5.4c-1.2,0.6-4.6,0.1-5.8,0.7c-2.5,1.3-4.1,4.5-5.8,6.6c-3.3,4.3-2.7,3.9-9.6,3.6c-5.2-0.2-8.5-0.7-10.2,0.3
		c-0.3,0.2,2.5,1.6,2,1.9c-1,0.6-5.3,0.3-5.2,1c0.4,2.6,4.5,6.4,2,7.2c-0.2,0-2.1,2-1.8,3.3c0.5,2.8,5.7,3.9-1.3,5.4
		c-3.3,0.7-4.7,2-7.8,2.8c-4.4,1.1-4.5-1-5.9,2.9c0.9-0.1-0.6,0.4-0.2,1.1c-0.8,1,0.6,1.9,0.1,3.4c-0.2,0.9-3,0.9-3.2,1.8
		c-1.8-0.5-2.4,1-5.1,0.4c-2.3-0.4-1.9,2.7-3.4,2.2c0,1.2-2.8,0-3.1,1.1c-0.4,0.8,4.1,2.1,3.2,2c0.3,0.7-3.2,1-3.7,1.4
		c-0.7,0.5-0.8,1.4-1.5,1.4c-1.6-0.2-1.3-3.9-4.2-3.9c-2.9-0.1-1,0.1-2.4,2.3c-0.8,1.3-1.9,1.2-2.7,1.6c-1,0.4-0.5,1.2-0.1,1.2
		c1.2,0.2,3.8-0.2,1.2,2.8c-0.4,0.5-2.1,0.5-3.2,0.1c-0.6-0.2-0.7-1.3-1.4-1c-4.7,1.9-3.2-2.1-4.7-1.7c-1.4,0.4,0.6,2-3,3.5
		c-0.7,0.3-1,2.8-1.9,4.2c-1.1,1.8-2.6,2.8-2,3.4c0.3,0.4,2.4-0.1,3.1-0.7c1.3-1.1,3.6-5.3,4.5-5.7c1.3-0.6,1,0,1.1,0.7
		c0.2,1.3-0.9,3.3-0.3,4.2c1.2,1.8,2.6-0.3,4,2.6c1.3,2.7-6.2,3.7-5.1,5.4c1.1,1.7,5.4-4,3.7,0.6c-0.7,1.9,0.9,2.6,1.1,3.8
		c1.2,5.6,5.9,3.9,5.3,8.2c-0.3,2.2-3.1,5.8-2,6c1.6,0.2,1.9-1.1,2.8-2.2c1.2-1.5,3-2.9,4.1-4.1c2.3-2.3,8.2-4.1,9.2-2.1
		c1,2-1.9,2-2.6,4c-0.4,1.2,1.2,2.1,1.6,2.6c1,1.2,7.5-2.4,7.8-4.2c0.3-1.8,0.7-4.7-0.8-6.4c-1.4-1.7-5.3-0.1-5.7-0.8
		c-1.4-2.5-0.1-1.2,0.6-2.7c1.4-2.9-1.3-6.6,0.2-7c1.5-0.5,5.3-2.3,7,2.1c0.7,1.9,0.5,5.4,1.6,7.1c1.6,2.4,4.1,3.2,4.9,3.8
		c1.4,1-0.2,5.1-3.3,5.7c-5.8,1.2-2.1,5.3-4.4,5.3c-3.4-0.1-2.1,1.4-4.4,2.1c-3.6,1.2-0.2-3.9-2.5-4.1c0,2.8-3.3,2-5.1,2.8
		c-2.9,1.3-1.8,8.5-3.1,11.1c1.5-0.5,2.1,0.1,1.6,1.5c4.7-3.6,8-6.6,9.5-7.5c1.5-1,3,0.4,3.8,0.4c2.6,0.1,3.5-3.1,3.5-5.2
		c0-2.1-0.1-3.2,2.4-3.5c0.9-0.1,1-1.3,1.6-0.4c1.7,2.6-5.7,4.6-1.1,7c-0.3-0.2-2.5,2.9-2.6,3.5c-0.6,3.3-2.3,2.6-3.5,4.8
		c-0.9,1.6,0,2.2-1.4,3.5c-0.6,0.5-4,1.1-4.6-0.1c-0.5-1-0.3-2.8,0.2-3.7c0.5-1,3.5-2.3,0.9-3.5c-0.9-0.4-4.5,4.4-5.4,4.7
		c0.9,1.5-0.1,0.5,0.3,2.3c-0.5,1.5,2.2,3.5,3.6,3.3c0.4,0-1.2,2.1-1.2,2.5c-0.4,1.2,0.5,1.2,1.4,2.3c0.9,1-0.8,3.6-1.2,5.9
		c-0.6,3.6,0.8,1.8,3.4,3.5c2.5,1.6,2.8,6.4,1.6,8.8c-0.4,0.9-1,3.3-2.2,3.8c-1.5,0.6-3.8-0.9-4.3,0.2c-0.2,0.4,2.6,2.3,2.5,2.8
		c-1.6,6.2,6.1,3.2,5.9,3.1c2.9,0.3,4.7-0.4,4.9,2.4c0.2,4.1,5.1,0.5,5.7-0.5c1.7-3-1.4-2-2.8-4.1c-0.3-0.5,0.2-1.6-0.1-2.4
		c-0.4-0.9-0.9-0.3-1.3-1.1c-0.5-1.2-0.5-3.7,0.4-4.2c0.8-0.5,1.4-2.5,1.4-2.1c0.9,0,4.1,0,3.9,1c-0.7,6.1,2.3,1.3,3.8,8.6
		c1,4.7-1.3,0.3-1.5,7.2c-0.1,2.1-2.7,2.8-2.9,3.3c-0.5,1.3-0.5,3.4-0.2,3.5c0.4,0.2,2.1-2.8,1.8-2c4.7-1.8,8.9-4,11.6-7
		c1.2-1.3,3.8-1.1,4.1-3.5c-1.7,0.5-4.3-2.3-3.7-4.8c0.5-1.8,1.8-2.3,3.3-2.3c1.6-0.6,4.8,0.7,4.3,2.7c0,2.6,3.1,0.4,5,1
		c0-2.3-0.5-2.1,0.3-4.1c0.9-2.2,1.4-2.6,1.4-3.7c0.7,0.1,1.5-2.1,2-2.4c0.2-0.4,0.3-3.2,0.2-2.9c0.9-2.7,0.2-4.1-0.1-4.9
		c-0.6-1.4-0.5-3.2-0.5-3.8c0.1,0,1.2-3.3,1.4-4.8c0.4-2,1.7-2.4,1.9-5.2c0.2-2.6,1.4-5.5,1.8-6.4c0.4-0.9-0.7-4.7,3-3.6
		c0-1.6-1.3-3.7,1.6-3.7c-0.5-1.4-1.1-1.5-1.1-3c0.1-2.1,1.2-0.4,2.1-1.7c0.5-0.8,1.6-3.3,2.6-3.7c1.7-0.6,2.6-2.5,3-4.1
		c0.3-1.2,1.5-0.5,2.3-0.5c0.7-0.6,1.2-0.2,1.4-0.9c0.2-0.7-0.3-1.2-0.9-1.3c-0.6-0.1,0-0.9,0.5-0.9c0.5,0,0.4-0.5,0.7-1.3
		c0.3-0.8,0-0.8,1-1c1-0.2,2.3-0.6,1-0.7c-1.2-0.1-1.3,0.7-2.6,0.2c-1.3-0.5-1.8-1.1-1.9-2c-0.2-0.9-1.4-1.2-0.4-1.6
		c0.9-0.4,3.4-1.1,2.5-1.8c-0.8-0.7-1.6-0.6-2.6-0.5c-1,0.1-3.1-0.1-1.8-0.5c1.3-0.4,1.6-1.5,0.3-1.6c-1.3,0-3.3,0.7-2.1-0.9
		c1.2-1.6,2.2-2.4,2.3-3.5c0.1-1.1-0.2-1.5-0.7-1.1c-0.5,0.3-0.7,0.5-1.9,0.6c-1.2,0.1-2.5-0.1-3.3-0.5c-0.7-0.5-0.7-0.4-3.3-0.6
		c-1.1,0-4,1.5-4.4,1c-0.4-0.5-1.3-1.3-1-2.6c0.3-1.2,0.6-1.8,1.5-1.8c0.4,0,1.7,1.2,3.3-0.3c1.7-1.6,3-2.3,3.4-3.3
		c2-5.5-1.2-9.5-6.2-9.6c-4.2-0.1-4.1,3.6-6.2,4c-2.5,0.5-4-0.6-6.1-1.3c-3-1-5.7-0.1-6.9-2.8c-0.7-1.6-1.8-3.5-1.9-5.8
		c-0.1-3.2,1.5-6.3,1.5-8.2c2,0.2,3.6,2,4.9,3.6c1.2,1.4,2.5,0.8,4.8,0.5c0.9-0.1,1-1.9,2.5-2.7c0.9-0.5,2.8,0.7,3.1,0.5
		c0.9-0.5,2.2-1,3.5-0.3c1.3,0.7,2.2-1.8,3.1-1.8c0.4,0,2-0.7,3.2-0.5c1.4,0.3,2.4,1.4,2.7,1.6c0.5,0.3-0.9,2.1,2.5,3.3
		c0-1.2,0.7-2.3,2-1.8c2.5,0.9,6.6,4.7,8.1,4c0.8-0.4,0-1.7,0.6-2.7c0.6-1.2,1.6,0.1,2.3-1.2c1.3-2.6,0.7-6.6,2.1-6.6
		c-0.5-1.5,0.6-4.2,0.1-5.7c1.2-0.3,1.7,1,2.6,0.4c0.7-0.4,1.3-1.7,0.2-2c-1.2,0.3-0.1-1.5,1.3-1.7c1.4-0.1,4.4,0.1,5.4,0.1
		c-0.4,0.5,0.7,0.6,0.5,1.6c-0.3,1-0.7,0.5,0,1.9c0.6,1.4,0.7,2.1,0.2,2.4c-0.5,0.3-1.4,1.6-1.2,0.5c0.2-1.2,0.6-1.9,0.2-3.3
		c-0.4-1.4-1-1.1-1.5-0.7c-0.6,0.4-0.4,0.6-1.2,0.9c-0.8,0.3-1.5,1-1.1,1.8c0.4,0.8,1.5,2.5,1.1,2.2c-0.4-0.2-1.9-0.4-1.1,0.4
		c0.8,0.8,0.9,0.8,1.9,0.9c0.9,0,1.8,0.6,1.2,0.7c-0.6,0.2-1.6,1.3-0.6,1.4c1,0.1,1.7-0.5,2.3-0.4c0.7,0.1,0.8,2.7,1.6,0.5
		c0.7-2.2,0.7-2.1-0.1-2.7c-0.8-0.6,1.1-2.2,0.2-1.7c0.8-0.4,2.9-0.9,4.4,0.5c2.3,2.3,5.3,1.1,5.4,1.1c2.6-1.4,3.3-1.5,4.3-1.8
		c1-0.3,1.9-0.6,2.3-0.2c0.4,0.4,0.5,1,0.5,1.8c0,0.9-0.5,2.5,2.2,0.5c2.7-2,3.8-1.3,2.3-2.6c-1.5-1.3-1.2-0.5-2.3-1.4
		c-1-0.9-1.1-1.2-1.4-1.9c-0.3-0.7-0.9-1.3-1.3-0.5c-0.4,0.8-0.2,1.3-0.9,2.1c-0.7,0.8-1.1,1.7-1.1,1.7s-2.1,1.7-1.2,0.1
		c0.9-1.7,1.1-3.3,0.7-3.4c-0.5-0.2-0.8,0-1.7,0.8c-0.8,0.8-1.4,1.2-1.8,1.9c-0.4,0.7,0.2,1.1-1,1.1c-1.1,0-0.8,0.2-2.4-0.1
		c-1.7-0.3-3.7,0.7-2.4-1c1.3-1.7,2.1-1.3,3.6-2.1c1.5-0.8-0.6-1.4,0.9-1.6c1.5-0.2-0.2,0.2,3.5-0.4c3.6-0.6,4.8-1.4,5.5-0.8
		c0.7,0.6,0.4,0.2,0.7,1.5c0.3,1.3-0.4,2,1,2.1c1.4,0.1,1.2,0.2,2.1,0.4c0.9,0.1,1.7,0.8,2.3-0.5c0.6-1.3,0.4-0.7-0.1-2.2
		c-0.5-1.5-0.5-1.9,0.6-2.4c1.1-0.5,0.6-0.4,1.3,0.3c0.6,0.7,0.6,0.7,2,0c1.3-0.7,1.4-0.6,3.1-1.4c1.7-0.8,2.1-1.3,4-2.2
		c1.8-0.9,0.9-0.1,2.9-1.5c1.6-1.2,0,0.1,1.5-0.9c5.4-3.6-0.4,1.2,3.6,1.7c1.6,0.2,7.4-1.6,9-1.6c3.4,0,2.6-1.8,3.3-4.4
		c1.6,0.5,3.3-0.9,5-0.4c3.5-5.5,13.2-5.1,19.5-5.3c4.2-0.2,5.1,1.7,8.4,3.6c4.6,2.7,0.1,4.4-2.6,6.5c-2.1,1.7-3.4,4.3-4.9,6.2
		c-0.9,1.2-2.3,1.4-2.7,2.9c1.8,0.8,2.6,4,4,3.7c1.4-0.2,2.8-1.4,4.6-2.3c1.3-0.7,2-0.7,2.4-1.7c0.4-1-1.8-2.1-1.9-3.5
		c-0.1-1.6,0.7-2.6,1.6-3.3c0.9-0.7,2.7-3.6,3.2-4.3c0.5-0.7-0.7-2.6,1.7-3.3c1.6-0.4,3.6,0.6,4.8-0.4c1.2-1.1,1.8-1.5,3.4-2.3
		c0.8-0.4,2-0.4,3.2,1.3c1.2,1.6,1.4,3.3-0.2,6c-0.9,1.4-3,4.4-5,6.1c-1.5,1.2-3.1,1.2-3.6,1.5c-0.4,0.3-2,0.9-2.5,1.3
		c-0.7,0.6-0.1,1.1,0.6,1.8c1.1,1.3,1.8,2.5,2.4,3c0.6,0.6,0.9,1,0.3,1.9c-0.7-0.5-3,0.5-2.8,1.9c0.2,0.9,2.6,0.4,2.3,1.9
		c-0.2,0.9-3.1,2.1-3.1,6.1c4.4,2.1,6.4,4.7,10.8,6.8c3.4,1-1,1.5-0.9,2.5c0.1,0.9,1.9,0.8,2.2,1.6c0.4,1.1,0.2,1.9,0.7,2.4
		c0.5,0.5,1.4,1.6,2.1,1.9c0.7,0.3,1.4,0.3,1.9,0.4c0.5,0.2,1.3,0.4,1.8,0.6c0.5,0.2,0.9-0.7,2.7,0.1c1.5,0.7,2.3,1.4,4.9,0.7
		c0.3-0.1-1.5,2.4-1.2,2.2c1-0.5,3.1-0.2,4.4-1.2c0.5-0.4-2.4-0.8-1.9-1.3c1.1-1.2,3.6-1.4,4.8-2.8c1.6-1.8,0.1-2.9,1.1-4.1
		c1.7,0.1,2.7-4.7,4.8-8.7c0.9-0.2,1.9-1.3,2.8-1.2c1-1.7,1.6-1.1,3.1-2.3c1.1-0.9,0.5-1.8,0.5-3.6c0-1.7,0.9-0.9,2-1.7
		c0.7-0.6-2.1-2.2-1.4-2.9c1.9-1.7,3-2.4,5.4-2c0.6,0.1-0.4-1.6,2.9-0.8c0.5,0.1-0.2-1.3,0.3-1.7c0.5-0.4,2.1,0.2,2.6,0.2
		c4.5,0.1,2.5-2.9,3.9-3.1c0.6-0.1,1.6,2.1,2.1,2.2c1.6,0.3,2.8,1.5,3.9,1.1c0.6-0.2,1.9-0.5,2.1-1.3c0.2-0.7-0.8-1.7-0.5-2.4
		c0.4-1,1.2-1.5,1.4-2.5c0.3-1.4-0.4-1.5-0.7-2.5c-0.2-0.6,0.4-2.3-0.3-2.6c-1-0.5-1.7,0.6-3.1,0.7c-1.1,0.1-3.1-0.6-3.8-1.1
		c-0.5-0.4-0.6-0.8-0.7-1.3c-1.1-1.3-2.4-1.3-4.4-2c-2.3-0.8-2-3.9-0.6-6.4c1.8-3.2,3.8-6.3,4.4-7.9c1-2.4,3.2-1.5,5.4-1.5
		c0,1.8-1.4,5.3,0.5,6.7c1.4,0.9,0.4,2.2,0.2,2.7c-1.5,3.2,3.1,2.5,5.2,3.1c-0.5-1.5-2.6-4.2-2.1-4.8c0.2-0.2,1.6,1.8,4,2.2
		c2.3,0.4,4.6-1.4,7.3-1.7c1.5-0.2,1.7,0.9,2.8,0.7c-0.9,2.8-2.9,3.2-4.9,4.3c-1.5,0.8-4.5-0.3-5.5,2.3c-0.3,0.8-1.1,2-0.1,2.2
		c2.4,0.7,9.7-2.2,11.1-2.6c4.4-1.4,8.9-2,13.3-1.8c1.4,0,2.7,1.8,4.1,2c1.9,0.2,3.9-1.7,5.8-1.3c3.7,0.8,10.3,3.6,10.8,3.4
		c0.3-0.1-1.2-3.1-0.4-5c0.7-1.5,2.2-2.9,3.9-2.9c1.7-2.3-0.4-4.9,1.4-5.3c1.5-0.3,1.6-0.8,3.3-2.5c1.6,0,2.6-0.1,3.1-0.7
		c0.6-0.6-2.9-6.2,7.6-6c0.9,0,7.8,2.4,3.8,4.2c-1.8,0.8-3.1-0.8-3.4,1.6c-0.1,0.7,0.1,1.6,0.4,2.7c0.5,1.8-0.3,2.6-0.4,3.9
		c0,2.3-0.4,5.6,0.7,7.7c1,2,1.3,1.2,4.2,1.2c0-1.5,0.9-1.8,3.3-1.8c2.5,0-0.5-3.9,2-3.9c0.3-1.5,1.1-1.1,1.5-1.7
		c0.2-0.4-0.2-1.6,0.4-2.3c0.6-0.6,2.6-1.6,2.6-2.7c0.1-3.6-2.1-1.2-1.7-4.2c0.3-2.3-1.5-2.4-0.2-4c0.7-0.8,1.4-0.3,2-1.4
		c0.4-0.8-0.2-2.1,0.2-3.2c0.4-0.9,1.8-1.8,2.5-2.1c3.1-1.5,7.5-1.3,10.9-1.3c4.4,0.1,2,5.1,3.8,7.2c0.8,0.9,0.6,0.1,1.5-0.3
		c1.1-0.5,0-1.1,0.9-2c1-1.1,3.8-2.5,2.6-2.9c-1.1-0.3-5-3-3.1-4c0.6-0.3,0.5-1.9,0.8-2.5c0.6-1.2,0.2-2.3,2.1-2.3
		c3.2-0.1,1.3-3.8,2.8-4.8c0.6-0.4,2.2-0.1,3.4-0.6c2-1,1.4-4.5,4.9-1.4c1.9,1.7,2.1,1.7,2.1,2.5c0,0.3-1.3,2.6-3,3.9
		c-1.6,1.2-3.6,1.2-4.7,2.4c-0.8,1,0.7,1.5,0.3,1.5c-1.2-0.1-3,0.9-3,2.4c-0.1,0.9,0.3,0.9,1.1,1.6c0.7,0.6-0.1,2,0.7,1.8
		c0,0.6,0,1.7-0.9,1.6c-1.4-0.2-0.4,4.2-0.5,4.5c-1,4,1.1,3.3,0.7,4c-0.7,1.1-3,0.6-3.4,1.2c-0.5,0.9,3.3,1.2,2.5,3.2
		c1.6,0,3.5-0.3,5.2-0.3c0.4-1.4,0.2-3.2,1.3-4.2c1.9-1,3.3-3.5,5.8-4.2c2.7-0.8,7.2-0.5,5.7-0.5c1,0,1.3-0.5,1.9-1.3
		c0.6-0.7,2-1.3,2-2c-0.2-2.3,0.7-2.2,0.8-4c0-1-1.3-6.7-0.1-7.3c2.7-1.6,1.9-1.5,4.3-4.2c2.1-2.3,3.2-1.9,4.4-3.3
		c1.2-1.4,5.1-0.5,6.8-0.5c4.7-0.2,0.7-0.8-0.5-3.1c-1.2-2.3-0.9-2.6-2.9-4.4c-2.1-1.9-3.1-4.5-4.1-7.8c-0.5-1.7-1.7-2.9-2.3-5.3
		c-0.4-1.9-0.6-3.5,0.3-5.4c1.6-3.7,2.2-1.7,2.1-2.7c0-0.7-0.7-4.1-0.1-5.7c1-2.6,2.4-5.2,2.6-5.1c1.4-1.2,1.1-4.2,1.6-5.7
		c1.1-3.2,0.9-5,4.2-6.8c4.5-2.4,4.2-1.5,5-6.3c0.5-3.2,0.4-3.9,1.2-7c1.1-4.4,0.5-5.2,0.8-7.6c0.1-1.1,0.4-5.9,0-10.4
		c-0.5-5.1-2.3-7.3-2.7-8.7c-1.9-5.5-3.3-8.4,0.1-15.1c2.5-4.9,6.1-4.4,7.4-6.4c0.5-0.8,0.9-1.5,1.4-2.2c2-2.4,6.2-0.5,7.2,0.1
		c0.6,0.4,0.7,3.6,2.1,4.6c0.9,0.7,3-0.8,4.2-0.4c0-1.7-2.8-5.4-2.7-6.4c0.1-1,2.2-2.3,1.7-3.9c-0.3-0.9-2.5-0.7-2.6-1.4
		c-0.1-0.6,1.8-1.8,1.9-2.9c0.1-1.3-2.5-0.7-2.4-2c0.1-0.9,3.4-0.5,4.2-1.5c0.9-1.1-2.6-2.4-2-3.4c1.5-2.5,5.1-0.4,5.1-6.3
		c0.3-0.2-0.8-2.7-0.5-2.9c0.2-0.1,1.9,2.2,2.1,2c1.1-0.6,0.9-2.4,1.8-3.2c1.3-1,3.7-1,4.9-2c0.3-0.2,0.7-0.5,1.2-1.9
		c0.1-0.3-1.9-1.1-1.8-1.5c0.1-0.4,1.8-0.1,2.2-0.6c0.3-0.4-1.8-1-1.6-1.6c0.2-0.6,2.2-0.5,2.9-1.3c0.5-0.5-0.4-2.1-0.1-2.6
		c3.2-4-1-2.9,0.3-4.5c0.9-1.2,2,0,3.3-2.2c-0.2-0.7,1-1.6-1-2.3C714.6,269.9,715.8,268.4,713.8,267.3z M292.7,604.2
		c-2.1-1.5-2.7-4.2-6-1.2c0-1,0.3-3.6,1.5-4.5c0.9-0.7,2.5-0.5,4.4,0c0.6,0.2,1.3,1.1,2,1.1C294.5,601.7,293.6,602.2,292.7,604.2z
		 M372.5,445.5c0.5-1,0.1-1.5,1.1-1.8c1-0.2,3.4,0.2,4.5,0.2C376.9,445.4,374.8,446,372.5,445.5z M383,442.5
		c2.3,1.3,1.9-0.3,2.6,2.1C383.4,444.6,381.2,444.1,383,442.5z M498.2,449.8c-0.6,0.9-0.4,0.1-1.6,1.6c-1.2,1.5-1.2,0.9-2.7,2
		c-1.5,1.1-2.4,2.6-3.8,3.2c-1.4,0.6-1-0.7-2.9,0.7c-1.9,1.4-1.9,3.6-2.4,4.2c-0.5,0.6-2.3,1-0.9-0.9c2.6-3.8,1-5.4,2.8-6.9
		c1.8-1.5,2-2,3.4-3.1c1.4-1.1,1.3-2.1,0.9-2.8c-0.5-0.7-1.8-1.8-0.2-3c1.6-1.2,3-1.1,3.3-1.5c0.2-0.4,1.8-2.1,1.6-0.1
		c-0.3,2-1.2,1.4,0.3,2.9C497.5,447.7,498.9,449,498.2,449.8z M548.1,473.6c-0.6,0.7-1.1,1.3-2.4,0c-1.3-1.4,0.4-0.3,0.8-0.8
		c0.4-0.5,1-1.3,1.6-1.1C548.7,471.8,548.7,472.9,548.1,473.6z M641.5,360.3c-1.3,0.5-1.4,0.2-2.6-2.2c-1.3-2.3,2.2-1.8,3.3-0.9
		C643.2,358.2,642.7,359.8,641.5,360.3z"/>
	<path d="M276.2,574c1.9-0.1,2.8-1.1,2-1.6c-0.8-0.5-1-1-2-1c-1,0-1.6,0.1-0.8,0.6c0.8,0.5,1.9-0.3,1.5,0.6
		C276.6,573.4,274.5,574.1,276.2,574z"/>
	<path d="M684.7,879.7c0,2.3,3.1,4.3,3.1,1C687.8,877.4,684.7,877.4,684.7,879.7z"/>
	<path d="M252.9,510c-1,0.7-2.6,4.9-2.6,6.1c1.6,0,5-1.1,6.6-1.1C256.6,511,254.6,508.7,252.9,510z"/>
	<path d="M627.7,567.4c0,1.4,3.8,4.5,3.1,0.7C630.2,564.2,627.7,566,627.7,567.4z"/>
	<path d="M623.2,507.8c-1.4,1.2-1.7,3.4-0.4,2.9C624.2,510.1,624.5,506.6,623.2,507.8z"/>
	<path d="M614.3,471.2c-1.1,0.8-1.5,1.6-1.2,2.9c0.2,1.2-0.5,1.5,1.6,1.9c2.1,0.4,2.6-0.2,2.4-2.6
		C616.9,472.1,615.4,470.4,614.3,471.2z"/>
	<path d="M630.3,538.9c-2.9-1.5-3.6,2.8-1,4C631.9,544.2,633.2,540.5,630.3,538.9z"/>
	<path d="M647.1,649.9c0.6,2.4,4.1,2.1,3.1-1C649.3,645.8,646.4,647.5,647.1,649.9z"/>
	<path d="M619.4,498.9c-1.9,0-1.7,0.8-1.6,2.3c0.1,1.5,1.1,2.2,2.4,1c1.3-1.2,2.1-0.3,1.4-1.8
		C620.8,498.9,621.3,498.9,619.4,498.9z"/>
	<path d="M685.9,855.4c0.6-2.3-1.6-5.6-2.2-2.3C683.1,856.3,685.3,857.7,685.9,855.4z"/>
	<path d="M605.3,495c-1.4,2.3,1,1.5,2,0.1C608.2,493.8,606.6,492.7,605.3,495z"/>
	<path d="M383,420.8c0-4.4-2.4-3.1-6.6-3.1C376.4,422.1,378.7,420.8,383,420.8z"/>
	<path d="M435,477.5c1.2,0,1.7-2,0.2-1.8c-1.5,0.1-1.9-0.2-3.7,0.7c-1.8,0.8-1.9,1.5-0.1,1.4
		C433.3,477.6,433.9,477.5,435,477.5z"/>
	<path d="M389.9,409.7c-1.1-1.9-3.8-0.1-5.3,0.3c0,4.8,1.4,6.2,6.5,6.2C391.1,414.1,391,411.5,389.9,409.7z"/>
	<path d="M361.6,502.1c0,1.8,1,2.5,3.2,1.5C365.3,501.9,364.5,502.1,361.6,502.1z"/>
	<path d="M422.3,486.2c0.3,1.5,0.9-0.8,1.6-0.9c0.7-0.1,0.4,0.6,2.1,0.2c1.7-0.4,0.3-1,1.3-3c1-2-0.1-1.6-2-1.4
		c-1.9,0.1-2.5,0.3-5,1.6c-2.5,1.3,0.2,1.7,1.2,1.6C422.5,484.3,422,484.7,422.3,486.2z"/>
	<path d="M440.2,506c-4.1,0-0.1-2.9-4.2-2.9c0.6-1.6,0.5-7.2,1-8.8c-4.3,0.6-7.2,2.4-10.6-1.1
		c-2.6-2.6-3.9-3-7.9-3.4c-2.1-0.2-3.7-1.2-5.8-1.3c-0.8,0-2.3-0.1-3-0.1c0.1,0.8-0.6,0.2-1.3,0.5c-1.1,0-0.3-1.7-2.2-1.9
		c-1.4-0.2-1.9,0.2-1.9,1.7c1.1,0,2.9,0.1,3.9,0.8c-1.3-0.9-4.9,2.8-6,3.2c-4,1.5-2,3.7-1.1,6.9c-2.8,0-2.6,2.8-3.3,4.7h-4.4
		c-3.5,0-1.3-1.7-3-1.7c-0.2,0.2-0.4,0.3-0.6,0.4c0.1,1.5-0.8,2.1-2.7,1.7c-2.4,0.4-4.9,0.8-7.4,1.2c-0.5-2.3-3.1-6.5-6.4-6.5
		c0,2.4-1.8,1.7-3.3,3c-1.8,1.5-1.6,3.9-2.9,5.6c-0.6,0.6-1.2,0.9-2.2,0.9v6.2c-2.6,1.8-5.4,3.3-6.8,5.9c-0.4,0.5-1,0.6-1.6,0.4
		c-2.1-0.2-1.6,0.6-2.6,2c-1.3,1.7-2.9,0.5-4,2.2c-1.3,2.1-3.9-0.9-5.3,1.6c-1,1.7-2.2,1.8-4.3,1.8c1.3,0.7,3,0.8,3,2.1
		c3.9-2,5.8-4.2,10.1-5.2c0,2.2-1,5.8,1.3,6.7c1.7,0.7,4,1.3,4.9,2.9c1.3,2.4-5.7,2.6-4.9,4c1.1,1.7,2-0.3,1.7,2.9
		c-0.1,1.4-0.2,3.6,1.9,3.6c-0.5,1.6-1.1,3.1-1.6,4.6c1-0.4,2.3-2.5,3.5-2.7c1.4-0.2,4,0.2,5,1.4c0.9,1-1.9,3.8-2.1,4.8
		c-0.2,1.1,0.6,0,2.6,0.4c1.9,0.4,4.9-0.4,7.2,0.1c2.6,0.5,4.4,2.1,5.2,2.2c-1-2.6-2-5.4-1.7-8.2c0.5-4.6,1.8-4.1,4.2-6.3
		c0.9-0.8,2.1-1.2,2.6-2.2c1.1-2.5,3.1-0.2,3.1-3.7c0-5.1,0.9-8,6.2-8c0-4.9,10-4.6,14-4.6c4.4,0.1,13.3,6.3,13.3,10.7
		c3.3-2.9,2.6-6.1,3.8-10.1c0.3-1.2,1-1.6,2.2-1.5c2,0.2,1.1-1.7,1.8-2.8c0.6-1.1,2.1-1.3,3.2-1.5c2.2-0.5,1.6-1.9,3.2-3
		c0.8-0.6,1.8-1.9,2.7-1.9c0-2.4,3.5-0.4,4.2-2.6C437.6,511,439.8,507.3,440.2,506z"/>
	<path d="M609.1,488.2c-1.6,2.3-1.1,2.5-0.1,2.6c1,0.1,1.5-0.4,2.2-2C612,487.1,610.7,485.9,609.1,488.2z"/>
	<path d="M346.9,505.2v3.1c2.7-0.5,5.5-1,8.2-1.5C355.1,503.8,348.6,505.2,346.9,505.2z"/>
	<path d="M242.2,476.5c-2,0.8-4.4,2.4-4.4,3.8c0,2.5,0.2,8.4-2.4,10.3c-3.2,2.3-0.9,6.3-0.9,9.7
		c2.7,0,3.2-2.5,4.4-5.6c0.7-1.7,2.5-1.5,3.1-3.3c0.8-2.3-0.7-3.7,0.2-7.4c4.3-1.4,2.4-4.6,3.2-8.5
		C243.4,475.5,245,475.3,242.2,476.5z"/>
</g>
</svg>
